<?xml version="1.0" standalone="no"?>
<!DOCTYPE svg PUBLIC "-//W3C//DTD SVG 20010904//EN"
 "http://www.w3.org/TR/2001/REC-SVG-20010904/DTD/svg10.dtd">
<svg version="1.0" xmlns="http://www.w3.org/2000/svg"
 width="144.000000pt" height="144.000000pt" viewBox="0 0 144.000000 144.000000"
 preserveAspectRatio="xMidYMid meet">
<metadata>
Created by potrace 1.14, written by Peter Selinger 2001-2017
</metadata>
<g transform="translate(0.000000,144.000000) scale(0.100000,-0.100000)"
fill="#000000" stroke="none">
<path d="M0 720 l0 -720 98 0 98 0 35 36 c18 19 55 52 81 72 27 20 48 44 48
53 0 25 52 59 107 69 27 5 73 16 103 25 56 17 209 23 248 11 13 -4 22 -16 22
-27 0 -27 -46 -26 -55 1 -9 27 -32 25 -31 -2 1 -25 -43 -44 -124 -55 -32 -4
-55 -15 -80 -38 -19 -17 -55 -43 -80 -57 -25 -14 -54 -35 -64 -47 l-19 -21 52
0 c28 0 94 12 146 27 80 22 96 24 110 13 10 -8 15 -23 12 -37 l-4 -23 368 0
369 0 0 720 0 720 -372 0 c-245 0 -368 -4 -358 -10 8 -5 29 -10 46 -10 16 0
36 -6 43 -12 11 -11 12 -10 5 2 -4 8 21 -15 56 -51 36 -36 76 -73 88 -82 20
-13 23 -21 17 -46 -4 -17 -11 -29 -16 -25 -5 3 -9 -1 -9 -8 0 -10 -2 -11 -8 0
-13 19 -41 4 -35 -18 3 -11 0 -33 -5 -49 -7 -19 -7 -33 -1 -36 5 -4 9 -24 9
-45 0 -34 -4 -42 -30 -55 -38 -20 -58 -19 -111 4 -28 12 -76 20 -132 23 -85 4
-88 4 -93 -19 -5 -16 0 -31 15 -46 67 -70 92 -103 87 -120 -4 -16 -1 -18 22
-12 15 5 45 11 67 15 22 3 49 11 60 17 11 6 41 14 67 18 61 9 64 2 44 -107 -9
-47 -16 -99 -16 -116 0 -50 -23 -64 -89 -56 l-56 7 24 -27 c20 -21 22 -29 12
-39 -9 -9 -13 -9 -20 1 -5 9 -12 7 -28 -7 -12 -11 -23 -26 -27 -33 -4 -9 -10
-7 -22 9 -21 29 -39 29 -88 -1 -47 -28 -35 -40 36 -37 36 1 60 -5 85 -20 l34
-21 -22 -16 c-20 -14 -85 -20 -117 -11 -20 6 -41 -29 -24 -40 11 -6 11 -10 0
-18 -21 -17 -62 -9 -73 15 -5 12 -16 22 -23 22 -15 0 -41 24 -59 54 -23 40
-36 71 -34 82 0 6 -6 17 -14 24 -8 7 -15 17 -15 23 0 6 6 2 14 -9 8 -10 18
-16 22 -12 9 10 -15 38 -32 38 -8 0 -14 8 -14 18 0 9 -8 29 -18 44 -17 26 -23
121 -8 135 3 4 6 1 6 -5 0 -7 5 -12 12 -12 6 0 4 8 -6 19 -12 14 -17 33 -15
63 1 24 2 60 1 82 -2 32 -5 37 -19 31 -71 -30 -71 -30 -94 -10 -42 38 -61 102
-63 207 -1 89 1 98 23 122 35 37 72 34 110 -10 23 -26 37 -34 51 -29 26 8 26
-11 0 -25 -13 -7 -20 -21 -20 -41 0 -18 4 -28 10 -24 6 4 10 -16 10 -52 l1
-58 18 45 c9 25 22 54 28 65 24 45 37 81 37 107 1 14 4 30 9 34 11 11 9 36 -3
29 -16 -10 -12 13 7 42 17 26 17 27 0 20 -13 -5 -17 -1 -17 13 0 11 4 20 9 20
5 0 11 7 15 15 5 13 -23 15 -214 15 l-220 0 0 -720z m640 234 c12 -12 11 -14
-9 -14 -28 0 -61 17 -61 31 0 15 50 2 70 -17z m-363 -131 c0 -49 2 -113 5
-143 6 -52 36 -147 57 -179 13 -20 -40 -66 -125 -109 -39 -20 -40 -23 -39 -67
0 -39 5 -49 29 -64 15 -10 36 -16 47 -14 14 4 22 -2 29 -23 23 -58 -9 -94 -95
-108 -50 -8 -58 -2 -77 54 -12 36 -13 60 -5 119 6 52 6 86 -2 111 -6 21 -11
82 -11 137 0 85 3 106 23 144 13 24 34 49 48 56 13 6 36 17 50 23 34 15 49 49
49 105 0 25 4 45 10 45 5 0 8 -37 7 -87z m663 -509 l122 -126 -23 -16 c-22
-15 -24 -14 -86 54 -179 194 -193 214 -154 214 10 0 71 -54 141 -126z m-315 6
c-3 -5 -12 -10 -20 -10 -8 0 -17 5 -20 10 -4 6 5 10 20 10 15 0 24 -4 20 -10z
m-430 -300 c3 -5 1 -10 -4 -10 -6 0 -11 5 -11 10 0 6 2 10 4 10 3 0 8 -4 11
-10z"/>
<path d="M175 1258 c-4 -15 -12 -88 -9 -88 3 0 54 91 54 96 0 10 -41 2 -45 -8z"/>
<path d="M250 1210 c0 -5 5 -10 11 -10 5 0 7 5 4 10 -3 6 -8 10 -11 10 -2 0
-4 -4 -4 -10z"/>
<path d="M214 1163 c-22 -15 -26 -51 -8 -78 21 -32 30 -32 37 4 4 18 14 30 27
34 33 9 22 41 -15 45 -17 1 -35 -1 -41 -5z"/>
<path d="M602 798 c-20 -20 -13 -28 13 -16 14 6 25 15 25 20 0 12 -24 10 -38
-4z"/>
</g>
</svg>
